<svg xmlns="http://www.w3.org/2000/svg" viewBox="0 0 1440 720" role="img" aria-labelledby="title desc">
  <title id="title">Minimal verifiable resume evidence illustration</title>
  <desc id="desc">A transparent 2D vector illustration showing resume claims linked to real evidence from shipped work.</desc>
  <defs>
    <filter id="softGlow" x="-30%" y="-30%" width="160%" height="170%" color-interpolation-filters="sRGB">
      <feDropShadow dx="0" dy="24" stdDeviation="24" flood-color="#020617" flood-opacity="0.34" />
      <feDropShadow dx="0" dy="0" stdDeviation="16" flood-color="#14b8a6" flood-opacity="0.16" />
    </filter>
    <linearGradient id="evidenceLine" x1="258" y1="0" x2="1178" y2="0" gradientUnits="userSpaceOnUse">
      <stop stop-color="#5eead4" stop-opacity="0.12" />
      <stop offset="0.5" stop-color="#5eead4" stop-opacity="0.96" />
      <stop offset="1" stop-color="#5eead4" stop-opacity="0.12" />
    </linearGradient>
    <style>
      .mono {
        font-family: ui-monospace, SFMono-Regular, Menlo, Monaco, Consolas, "Liberation Mono", monospace;
      }

      .sans {
        font-family: Inter, ui-sans-serif, system-ui, -apple-system, BlinkMacSystemFont, "Segoe UI", sans-serif;
      }
    </style>
  </defs>

  <g opacity="0.22">
    <path d="M214 124 H1226" stroke="#e2e8f0" stroke-width="1" stroke-dasharray="4 18" />
    <path d="M214 596 H1226" stroke="#e2e8f0" stroke-width="1" stroke-dasharray="4 18" />
    <path d="M306 96 V624" stroke="#e2e8f0" stroke-width="1" stroke-dasharray="4 18" />
    <path d="M1134 96 V624" stroke="#e2e8f0" stroke-width="1" stroke-dasharray="4 18" />
  </g>

  <g fill="none" stroke="url(#evidenceLine)" stroke-linecap="round">
    <path d="M570 250 C670 250 724 194 818 194" stroke-width="4" />
    <path d="M570 360 C666 360 724 360 818 360" stroke-width="5" />
    <path d="M570 470 C670 470 724 526 818 526" stroke-width="4" />
  </g>

  <g opacity="0.86">
    <circle cx="642" cy="250" r="7" fill="#5eead4" />
    <circle cx="686" cy="360" r="8" fill="#5eead4" />
    <circle cx="642" cy="470" r="7" fill="#5eead4" />
  </g>

  <g transform="translate(234 130)" filter="url(#softGlow)">
    <rect width="336" height="460" rx="40" fill="#f8fafc" />
    <rect x="1" y="1" width="334" height="458" rx="39" fill="none" stroke="#ccfbf1" stroke-width="2" />

    <g transform="translate(44 42)">
      <circle cx="34" cy="34" r="34" fill="#0f766e" opacity="0.12" />
      <path d="M19 54 C24 40 44 40 49 54" stroke="#0f766e" stroke-width="6" stroke-linecap="round" />
      <circle cx="34" cy="27" r="13" stroke="#0f766e" stroke-width="6" />
      <rect x="88" y="12" width="154" height="16" rx="8" fill="#0f172a" opacity="0.82" />
      <rect x="88" y="46" width="196" height="11" rx="5.5" fill="#64748b" opacity="0.28" />
      <rect x="88" y="70" width="148" height="11" rx="5.5" fill="#64748b" opacity="0.22" />
    </g>

    <text class="mono" x="44" y="166" fill="#64748b" font-size="18" letter-spacing="0">resume claims</text>

    <g transform="translate(44 200)">
      <rect width="248" height="58" rx="20" fill="#ecfdf5" stroke="#5eead4" stroke-width="2" />
      <circle cx="30" cy="29" r="7" fill="#0f766e" />
      <rect x="54" y="20" width="138" height="10" rx="5" fill="#0f172a" opacity="0.72" />
      <path d="M214 23 L224 29 L214 35" stroke="#0f766e" stroke-width="3" stroke-linecap="round" stroke-linejoin="round" />
    </g>

    <g transform="translate(44 310)">
      <rect width="248" height="58" rx="20" fill="#ecfdf5" stroke="#5eead4" stroke-width="2" />
      <circle cx="30" cy="29" r="7" fill="#0f766e" />
      <rect x="54" y="20" width="172" height="10" rx="5" fill="#0f172a" opacity="0.72" />
      <path d="M214 23 L224 29 L214 35" stroke="#0f766e" stroke-width="3" stroke-linecap="round" stroke-linejoin="round" />
    </g>

    <g transform="translate(44 420)">
      <rect width="248" height="58" rx="20" fill="#ecfdf5" stroke="#5eead4" stroke-width="2" />
      <circle cx="30" cy="29" r="7" fill="#0f766e" />
      <rect x="54" y="20" width="122" height="10" rx="5" fill="#0f172a" opacity="0.72" />
      <path d="M214 23 L224 29 L214 35" stroke="#0f766e" stroke-width="3" stroke-linecap="round" stroke-linejoin="round" />
    </g>
  </g>

  <g transform="translate(624 276)" filter="url(#softGlow)">
    <circle cx="84" cy="84" r="84" fill="#0f172a" stroke="#5eead4" stroke-width="3" />
    <path d="M84 38 L124 58 V91 C124 118 105 136 84 146 C63 136 44 118 44 91 V58 Z" fill="#5eead4" opacity="0.12" stroke="#5eead4" stroke-width="4" stroke-linejoin="round" />
    <path d="M62 89 L79 106 L109 73" stroke="#ccfbf1" stroke-width="8" stroke-linecap="round" stroke-linejoin="round" />
    <text class="mono" x="84" y="192" fill="#ccfbf1" font-size="18" letter-spacing="0" text-anchor="middle">verified</text>
  </g>

  <g transform="translate(818 126)" filter="url(#softGlow)">
    <rect width="366" height="132" rx="32" fill="#f8fafc" />
    <rect x="1" y="1" width="364" height="130" rx="31" fill="none" stroke="#ccfbf1" stroke-width="2" />
    <path d="M46 42 H110 C122 42 130 50 130 62 V96 H32 V58 C32 49 39 42 46 42 Z" fill="#0f766e" opacity="0.12" />
    <path d="M32 62 H130 V96 H32 Z M46 42 H78 L90 56 H130" stroke="#0f766e" stroke-width="5" stroke-linejoin="round" />
    <text class="sans" x="158" y="61" fill="#0f172a" font-size="25" font-weight="730" letter-spacing="0">Repository</text>
    <text class="mono" x="158" y="94" fill="#64748b" font-size="17" letter-spacing="0">source proof</text>
  </g>

  <g transform="translate(858 294)" filter="url(#softGlow)">
    <rect width="390" height="132" rx="32" fill="#f8fafc" />
    <rect x="1" y="1" width="388" height="130" rx="31" fill="none" stroke="#ccfbf1" stroke-width="2" />
    <circle cx="72" cy="66" r="39" fill="#0f766e" opacity="0.12" />
    <path d="M51 66 L66 82 L96 49" stroke="#0f766e" stroke-width="8" stroke-linecap="round" stroke-linejoin="round" />
    <text class="sans" x="136" y="61" fill="#0f172a" font-size="25" font-weight="730" letter-spacing="0">Shipped feature</text>
    <text class="mono" x="136" y="94" fill="#64748b" font-size="17" letter-spacing="0">work completed</text>
  </g>

  <g transform="translate(818 462)" filter="url(#softGlow)">
    <rect width="366" height="132" rx="32" fill="#f8fafc" />
    <rect x="1" y="1" width="364" height="130" rx="31" fill="none" stroke="#ccfbf1" stroke-width="2" />
    <rect x="40" y="32" width="72" height="82" rx="14" fill="#0f766e" opacity="0.12" />
    <path d="M56 50 H96 M56 68 H96 M56 86 H84" stroke="#0f766e" stroke-width="5" stroke-linecap="round" />
    <path d="M100 32 V52 H120" stroke="#0f766e" stroke-width="5" stroke-linecap="round" stroke-linejoin="round" />
    <text class="sans" x="152" y="61" fill="#0f172a" font-size="25" font-weight="730" letter-spacing="0">Decision record</text>
    <text class="mono" x="152" y="94" fill="#64748b" font-size="17" letter-spacing="0">why it matters</text>
  </g>
</svg>
